<svg xmlns="http://www.w3.org/2000/svg" version="1.1" xmlns:xlink="http://www.w3.org/1999/xlink" xmlns:svgjs="http://svgjs.dev/svgjs" width="2000" height="702" viewBox="0 0 2000 702"><g transform="matrix(1,0,0,1,-1.2121212121212466,-0.6591777828742238)"><svg viewBox="0 0 396 139" data-background-color="#ffffff" preserveAspectRatio="xMidYMid meet" height="702" width="2000" xmlns="http://www.w3.org/2000/svg" xmlns:xlink="http://www.w3.org/1999/xlink"><g id="tight-bounds" transform="matrix(1,0,0,1,0.2400000000000091,0.13052095700786026)"><svg viewBox="0 0 395.52 138.73895808598428" height="138.73895808598428" width="395.52"><g><svg viewBox="0 0 613.2517981272941 215.11406633428692" height="138.73895808598428" width="395.52"><g transform="matrix(1,0,0,1,217.73179812729413,29.729946939109126)"><svg viewBox="0 0 395.52 155.65417245606866" height="155.65417245606866" width="395.52"><g id="textblocktransform"><svg viewBox="0 0 395.52 155.65417245606866" height="155.65417245606866" width="395.52" id="textblock"><g><svg viewBox="0 0 395.52 155.65417245606866" height="155.65417245606866" width="395.52"><g transform="matrix(1,0,0,1,0,0)"><svg width="395.52" viewBox="-0.4 -35.65 122.34 48.15" height="155.65417245606866" data-palette-color="#4b91f1"><path d="M1.35-23L1.75-25 3.4-25 4.9-31.9 12.3-32.9 10.6-25 13.6-25 13.2-23 10.2-23 7-8Q6.9-7.55 6.85-7.18 6.8-6.8 6.8-6.4L6.8-6.4Q6.8-5.4 7.28-4.98 7.75-4.55 8.85-4.55L8.85-4.55Q10.25-4.55 11.5-5.78 12.75-7 13.35-8.95L13.35-8.95 15.45-8.95Q13.85-4.4 11.15-2.05 8.45 0.3 4.95 0.3L4.95 0.3Q2.45 0.3 1.03-1.28-0.4-2.85-0.4-5.7L-0.4-5.7Q-0.4-6.35-0.3-7.18-0.2-8 0-8.95L0-8.95 3-23 1.35-23ZM29.6-22.7L29.6-22.7 29.6-22.35 30.15-25 37.35-25 33.75-8Q33.65-7.55 33.6-7.18 33.55-6.8 33.55-6.4L33.55-6.4Q33.55-5.3 34.05-4.78 34.55-4.25 35.6-4.25L35.6-4.25Q36.9-4.25 37.95-5.48 39-6.7 39.65-8.95L39.65-8.95 41.75-8.95Q40.15-4.35 37.6-2.02 35.05 0.3 31.7 0.3L31.7 0.3Q29.55 0.3 28.27-0.9 27-2.1 26.8-4.3L26.8-4.3Q25.25-2 23.37-0.85 21.5 0.3 19.35 0.3L19.35 0.3Q16.25 0.3 14.47-1.8 12.7-3.9 12.7-7.75L12.7-7.75Q12.7-10.55 13.55-13.6 14.4-16.65 15.9-19.15L15.9-19.15Q17.75-22.1 20.2-23.68 22.65-25.25 25.55-25.25L25.55-25.25Q27.5-25.25 28.55-24.58 29.6-23.9 29.6-22.7ZM26.75-8.95L29.15-20.25Q29.15-21 28.6-21.58 28.05-22.15 27.1-22.15L27.1-22.15Q24.35-22.15 22.22-17.55 20.1-12.95 20.1-8.45L20.1-8.45Q20.1-6.5 20.65-5.53 21.2-4.55 22.6-4.55L22.6-4.55Q23.9-4.55 25.12-5.8 26.35-7.05 26.75-8.95L26.75-8.95ZM55.9-22.7L55.9-22.7 55.9-22.4 56.45-25 63.65-25 58.7-1.8Q61.2-2.7 62.62-4.33 64.05-5.95 65-8.95L65-8.95 67.09-8.95Q65.95-5.15 63.82-2.85 61.7-0.55 58.25 0.4L58.25 0.4 57.5 4Q56.59 8.2 54.35 10.35 52.1 12.5 48.5 12.5L48.5 12.5Q45.95 12.5 44.42 11.2 42.9 9.9 42.9 7.65L42.9 7.65Q42.9 5.2 44.92 3.33 46.95 1.45 51.05 0.2L51.05 0.2 51.65-2.45Q50.35-1.1 48.85-0.4 47.35 0.3 45.65 0.3L45.65 0.3Q42.55 0.3 40.77-1.8 39-3.9 39-7.75L39-7.75Q39-10.55 39.85-13.6 40.7-16.65 42.2-19.15L42.2-19.15Q44.05-22.1 46.5-23.68 48.95-25.25 51.85-25.25L51.85-25.25Q53.8-25.25 54.85-24.58 55.9-23.9 55.9-22.7ZM52.9-8.45L55.45-20.3Q55.4-21.1 54.85-21.63 54.3-22.15 53.4-22.15L53.4-22.15Q50.65-22.15 48.52-17.55 46.4-12.95 46.4-8.45L46.4-8.45Q46.4-6.5 46.95-5.53 47.5-4.55 48.9-4.55L48.9-4.55Q50.1-4.55 51.27-5.65 52.45-6.75 52.9-8.45L52.9-8.45ZM50.25 4.15L50.55 2.7Q48.05 3.65 46.85 4.67 45.65 5.7 45.65 6.95L45.65 6.95Q45.65 7.6 46.15 8.1 46.65 8.6 47.35 8.6L47.35 8.6Q48.2 8.6 49 7.4 49.8 6.2 50.25 4.15L50.25 4.15ZM71.64 0.3L71.64 0.3Q68.29 0.3 66.47-1.38 64.64-3.05 64.64-6.1L64.64-6.1Q64.64-6.8 64.74-7.5 64.84-8.2 64.99-8.95L64.99-8.95 70.34-34 77.74-35 75.34-23.75Q76.54-24.5 77.47-24.83 78.39-25.15 79.44-25.15L79.44-25.15Q82.39-25.15 83.87-23.03 85.34-20.9 85.34-16.6L85.34-16.6Q85.34-13.65 84.44-10.55 83.54-7.45 81.94-5.15L81.94-5.15Q80.09-2.45 77.49-1.07 74.89 0.3 71.64 0.3ZM71.79-6.85L71.79-6.85Q71.79-5.7 72.47-5.13 73.14-4.55 74.44-4.55L74.44-4.55Q76.69-4.55 78.49-8.5 80.29-12.45 80.29-16.8L80.29-16.8Q80.29-18.9 79.57-20.25 78.84-21.6 77.64-21.6L77.64-21.6Q76.84-21.6 75.94-21.35 75.04-21.1 74.69-20.7L74.69-20.7 71.94-8Q71.89-7.7 71.84-7.4 71.79-7.1 71.79-6.85ZM99.54-31.65L99.54-31.65Q99.54-30 98.37-28.85 97.19-27.7 95.54-27.7L95.54-27.7Q93.89-27.7 92.74-28.85 91.59-30 91.59-31.65L91.59-31.65Q91.59-33.3 92.74-34.48 93.89-35.65 95.54-35.65L95.54-35.65Q97.19-35.65 98.37-34.48 99.54-33.3 99.54-31.65ZM86.79-5.7L86.79-5.7Q86.79-6.35 86.89-7.18 86.99-8 87.19-8.95L87.19-8.95 90.59-25 97.79-25 94.19-8Q94.09-7.55 94.04-7.18 93.99-6.8 93.99-6.4L93.99-6.4Q93.99-5.4 94.47-4.98 94.94-4.55 96.04-4.55L96.04-4.55Q97.44-4.55 98.69-5.78 99.94-7 100.54-8.95L100.54-8.95 102.64-8.95Q101.04-4.4 98.34-2.05 95.64 0.3 92.14 0.3L92.14 0.3Q89.64 0.3 88.22-1.28 86.79-2.85 86.79-5.7ZM110.79-3.75L110.79-3.75Q111.89-3.65 112.46-3.6 113.04-3.55 113.49-3.55L113.49-3.55Q114.59-3.55 115.16-3.8 115.74-4.05 115.84-4.55L115.84-4.55Q115.39-4.6 115.14-4.88 114.89-5.15 114.89-5.6L114.89-5.6Q114.89-6.45 115.69-7.1 116.49-7.75 117.69-7.75L117.69-7.75Q118.74-7.75 119.31-7.1 119.89-6.45 119.89-5.35L119.89-5.35Q119.89-3.3 118.11-1.65 116.34 0 113.79 0L113.79 0 100.54 0 113.29-22.3 110.49-22.3Q108.94-22.3 108.34-22.1 107.74-21.9 107.74-21.5L107.74-21.5Q107.74-21.5 108.01-21.3 108.29-21.1 108.29-20.4L108.29-20.4Q108.29-19.2 107.51-18.48 106.74-17.75 105.59-17.75L105.59-17.75Q104.59-17.75 103.94-18.35 103.29-18.95 103.29-19.95L103.29-19.95Q103.29-21.8 105.01-23.4 106.74-25 109.09-25L109.09-25 121.94-25 109.69-3.85Q109.84-3.85 110.06-3.83 110.29-3.8 110.79-3.75Z" opacity="1" transform="matrix(1,0,0,1,0,0)" fill="#4b91f1" class="wordmark-text-0" data-fill-palette-color="primary" id="text-0"></path></svg></g></svg></g></svg></g></svg></g><g><svg viewBox="0 0 180.98558371055526 215.11406633428692" height="215.11406633428692" width="180.98558371055526"><g><svg xmlns="http://www.w3.org/2000/svg" xmlns:xlink="http://www.w3.org/1999/xlink" xmlns:a="http://ns.adobe.com/AdobeSVGViewerExtensions/3.0/" version="1.1" x="0" y="0" viewBox="0 0 31.829 37.83100000000001" enable-background="new -4 -1.012 40 40" xml:space="preserve" height="215.11406633428692" width="180.98558371055526" class="icon-icon-0" data-fill-palette-color="accent" id="icon-0"><path d="M14.325 0H4.338C1.463 0 0 1.463 0 4.338v18.615c0 2.875 1.463 4.338 4.338 4.338h23.153c2.875 0 4.338-1.463 4.338-4.338v-7.314c-2.369 2.169-5.195 3.278-8.472 3.278-3.331 0-6.206-1.109-8.576-3.328-2.373-2.221-3.531-4.894-3.531-8.021C11.25 4.642 12.26 2.121 14.325 0L14.325 0z" fill="#4b91f1" data-fill-palette-color="accent"></path><path d="M29.055 2.221C27.543 0.808 25.727 0.052 23.606 0h-0.453c-2.117 0.052-3.934 0.757-5.497 2.221S15.287 5.5 15.287 7.567c0 2.067 0.806 3.883 2.369 5.346 1.563 1.463 3.48 2.221 5.701 2.221 2.218 0 4.134-0.757 5.697-2.221 1.564-1.463 2.373-3.279 2.373-5.346C31.428 5.5 30.619 3.684 29.055 2.221L29.055 2.221z" fill="#4b91f1" data-fill-palette-color="accent"></path><path d="M26.734 29.913c-0.907-0.906-2.018-1.362-3.276-1.362-1.263 0-2.373 0.456-3.28 1.362-0.909 0.908-1.362 2.018-1.362 3.28 0 1.259 0.453 2.369 1.362 3.279 0.907 0.906 2.018 1.359 3.28 1.359 1.259 0 2.369-0.453 3.276-1.359 0.909-0.91 1.362-2.021 1.362-3.279C28.097 31.93 27.644 30.821 26.734 29.913L26.734 29.913z" fill="#4b91f1" data-fill-palette-color="accent"></path><path d="M11.603 29.913c-0.906-0.906-2.017-1.362-3.279-1.362-1.259 0-2.37 0.456-3.276 1.362-0.91 0.908-1.363 2.018-1.363 3.28 0 1.259 0.453 2.369 1.363 3.279 0.906 0.906 2.017 1.359 3.276 1.359 1.262 0 2.373-0.453 3.279-1.359 0.909-0.91 1.362-2.021 1.362-3.279C12.965 31.93 12.512 30.821 11.603 29.913L11.603 29.913z" fill="#4b91f1" data-fill-palette-color="accent"></path></svg></g></svg></g></svg></g><defs></defs></svg><rect width="395.52" height="138.73895808598428" fill="none" stroke="none" visibility="hidden"></rect></g></svg></g></svg>